<svg width="8" height="9" viewBox="0 0 8 9" fill="none" xmlns="http://www.w3.org/2000/svg">
<path d="M7.05029 5.12859C7.23168 5.12859 7.38455 5.05542 7.48861 4.93433C7.5882 4.81845 7.63193 4.67236 7.63195 4.53557C7.63197 4.39877 7.58827 4.25266 7.48867 4.13675C7.38459 4.01563 7.2317 3.94248 7.05029 3.94248L4.59366 3.94248V3.21865L4.59366 2.24481V2.24481L4.59366 1.48585C4.59366 1.30446 4.52049 1.1516 4.3994 1.04753C4.28353 0.947949 4.13744 0.904216 4.00064 0.904197C3.86385 0.904179 3.71773 0.947873 3.60183 1.04747C3.4807 1.15155 3.40756 1.30445 3.40756 1.48585L3.40756 3.94248L1.70989 3.94248L1.70988 3.94248L0.950926 3.94248C0.769537 3.94248 0.616674 4.01565 0.51261 4.13674C0.413026 4.25262 0.369292 4.3987 0.369274 4.5355C0.369255 4.6723 0.412949 4.81841 0.512549 4.93432C0.616631 5.05544 0.769522 5.12859 0.950927 5.12859L3.40756 5.12859L3.40756 6.82626V7.58522C3.40756 7.76661 3.48073 7.91947 3.60182 8.02353C3.7177 8.12312 3.86378 8.16685 4.00058 8.16687C4.13737 8.16689 4.28349 8.12319 4.39939 8.0236C4.52052 7.91951 4.59366 7.76662 4.59366 7.58522L4.59366 5.12859L6.29134 5.12859L7.05029 5.12859Z" fill="white" stroke="white" stroke-width="0.5"/>
</svg>
